<?xml version="1.0" encoding="utf-8"?>
<!-- Generator: Adobe Illustrator 21.0.2, SVG Export Plug-In . SVG Version: 6.00 Build 0)  -->
<svg version="1.1" id="Layer_1" xmlns="http://www.w3.org/2000/svg" xmlns:xlink="http://www.w3.org/1999/xlink" x="0px" y="0px"
	 viewBox="0 0 255.6 225.6" style="enable-background:new 0 0 255.6 225.6;" xml:space="preserve">
<style type="text/css">
	.st0{fill:#EE3524;}
</style>
<path class="st0" d="M127.8,0c9,0,11.9,6.5,14.3,13c1,2.7,24.5,67,25.2,69c0.2,0.5,0.1,1.4-0.8,1.7c-0.8,0.3-13,5.1-13.7,5.3
	c-0.7,0.3-1.4-0.1-1.7-0.8c-0.3-0.7-5.3-14.7-5.9-16.3c-1.7,0-33.1,0-34.8,0c-0.6,1.6-5.7,15.6-5.9,16.3c-0.2,0.6-1,1.1-1.7,0.8
	c-0.7-0.3-13-5-13.7-5.3c-0.7-0.3-1-1.1-0.8-1.7c0.9-2.4,24-65.7,25.2-69C115.8,6.6,118.8,0,127.8,0z M86.5,115
	c-0.7,0-1.3,0.6-1.3,1.3v15c0,0.8,0.6,1.3,1.3,1.3h82.6c0.7,0,1.3-0.6,1.3-1.3v-15c0-0.7-0.6-1.3-1.3-1.3H86.5 M127.7,21L116,56.3
	h23.7L127.9,21H127.7z M177.2,208c0,3.2-1.8,5.3-5,5.3c-1.3,0-2.3,0-4-0.5v-9.6c0.7-0.1,2.3-0.4,4-0.3
	C175.5,203,177.2,204.5,177.2,208z M183.8,207.5c0-5.9-3.5-9.9-10.7-9.9c-1.8,0-3,0.2-4.9,0.6l0-8.5c1.2-0.2,3.2-0.3,5.5-0.3
	c2.1,0,4.8,0.1,7.2,0.4l0.2-4.9c-2.7-0.6-6.6-1-9.6-1c-3,0-7.6,0.7-9.8,1.3l0,31.3c3.5,1.3,6.8,1.8,10.3,1.8
	C179.7,218.4,183.8,214.2,183.8,207.5z M107.9,205.8c0,4.4-1.7,7.2-4.6,7.2c-1.2,0-1.8-0.1-3.2-0.5v-13.1c1.5-0.7,2.3-0.7,3.5-0.7
	C106.5,198.6,107.9,201,107.9,205.8 M86.1,205.9c0-4.8,1.4-7.3,4.3-7.3c1.2,0,2,0,3.5,0.7v13.1c-1.4,0.4-2,0.5-3.2,0.5
	C87.4,213,86.1,210.3,86.1,205.9 M100.1,225.6v-8.5c0.8,0.5,2.4,1.2,5,1.2c5.3,0,9.2-4.4,9.2-12.4c0-8.7-3.9-12.4-10.2-12.4
	c-1.6,0-2.7,0.2-4,0.8V184h-6.2v10.2c-1.3-0.6-2.4-0.8-4-0.8c-6.4,0-10.2,3.8-10.2,12.5c0,8,3.5,12.3,9.2,12.3c2.7,0,4.2-0.7,5-1.2
	v8.5H100.1 M53.2,217.8v-22.9c-3.4-1-6.1-1.5-9.5-1.5c-3.4,0-6,0.4-9.4,1.5v11.7c0,3.2-0.1,4.2-0.4,5.2c-0.3,0.9-0.8,2-2.1,2.8
	l1.7,3.7c5-1.4,6.9-3.6,6.9-10.5v-8.6c1.7-0.2,2-0.3,3.3-0.3c1.3,0,1.6,0.1,3.3,0.3v18.7H53.2z M129.9,212.8
	c-1.4,0.5-2.3,0.6-3.4,0.6c-2.2,0-3.5-0.9-3.5-3.2c0-2.4,1.6-3.2,4.7-3.2c0.8,0,1.5,0.1,1.8,0.2v1.7
	C129.6,210.8,129.7,212,129.9,212.8z M137.7,215.5c-1.6-2.5-2.1-4-2.1-7.1V202c0-3.5-0.4-4.7-1.3-6c-1.3-1.8-3.4-2.5-7.3-2.5
	c-2.7,0-5.5,0.3-8,0.9l0.9,4.6c1.7-0.2,3.6-0.5,4.9-0.5c4.1,0,4.6,0.6,4.6,3.7v1.2c-0.9-0.2-2-0.4-3.2-0.4c-6.2,0-9.5,3-9.5,8.1
	c0,4.7,3.5,7.3,7.8,7.3c1.6,0,3.3-0.3,4.6-0.8c0.8-0.3,1.1-0.5,2.2-1.2c0.6,0.9,1.9,1.8,2.4,2L137.7,215.5z M199.2,212.8
	c-1.4,0.5-2.3,0.6-3.4,0.6c-2.2,0-3.5-0.9-3.5-3.2c0-2.4,1.6-3.2,4.7-3.2c0.7,0,1.5,0.1,1.8,0.2v1.7
	C198.9,210.8,199,212,199.2,212.8z M207.2,215.5c-1.7-2.5-2.1-4-2.1-7.1V202c0-3.5-0.4-4.7-1.3-6c-1.3-1.8-3.4-2.5-7.3-2.5
	c-2.7,0-5.5,0.3-8,0.9l0.9,4.6c1.7-0.2,3.6-0.5,4.9-0.5c4.1,0,4.6,0.6,4.6,3.7v1.2c-0.9-0.2-1.9-0.4-3.1-0.4c-6.2,0-9.5,3-9.5,8.1
	c0,4.7,3.5,7.3,7.8,7.3c1.6,0,3.3-0.3,4.6-0.8c0.8-0.3,1.1-0.5,2.2-1.2c0.6,0.9,1.9,1.8,2.4,2L207.2,215.5z M70.8,209.6
	c0,2.3-0.8,4-3.8,4c-1,0-1.4,0-2.7-0.4v-6.9c1.6-0.3,1.8-0.4,2.7-0.4C69.8,205.9,70.8,207.3,70.8,209.6z M58,193.8l0,22.7
	c3,1.2,6.2,1.8,9.1,1.8c6.6,0,10.2-3.4,10.2-9.1c0-5.1-3.1-8.3-9-8.3c-1.5,0-2.4,0.2-4,0.6v-7.8H58z M230,217.8V194h-6.2v9h-7.1v-9
	h-6.2v23.8h6.2v-9.7h7.1v9.7H230z M255.6,217.8c0,0-3.4-7.3-4.2-8.9c-0.9-1.9-1.8-3.2-3.7-3.6v-0.1c1.3-0.2,2.3-1,3.4-3.4
	c1.1-2.3,1.4-2.8,2-3.4c0.6-0.6,1.5-0.3,1.5-0.3l0.3-4.3c-0.9-0.1-1.9-0.1-2.9-0.1c-1.7,0.1-2.6,0.6-3.4,1.4
	c-0.6,0.6-1.1,1.6-1.6,2.7c-0.6,1.2-1,2.2-1.6,3.4c-0.6,1.3-0.9,1.8-2.5,1.8h-1.1v-9h-6.3v23.8h6.3v-9.7l0.8,0c1.8,0,2.1,0.4,3,2.3
	c1.1,2.2,3.2,7.4,3.2,7.4H255.6z M22.8,217.8H30l-10.9-33.2c-1.1-0.4-2.6-0.6-4.1-0.6c-1.7,0-2.2,0.2-3.5,0.6L0,217.8h6.9
	c0,0,0.9-2.9,2.1-6.5h11.9C21.9,214.9,22.8,217.8,22.8,217.8z M10.7,205.7c0,0,2-6.7,2.3-7.7c0.8-2.7,2-7,2-7h0.2
	c0,0,1.1,4.4,1.8,6.9c0.3,1,2.2,7.7,2.2,7.7H10.7z M148.6,201.9c-2.2,0-4,1.8-4,4c0,2.2,1.8,4,4,4c2.2,0,4-1.8,4-4
	C152.6,203.7,150.8,201.9,148.6,201.9z"/>
</svg>
