<svg xmlns="http://www.w3.org/2000/svg" viewBox="0 0 85.2 132.8"><defs><style>.cls-1{fill:#ee3524;}</style></defs><title>Ресурс 1</title><g id="Слой_2" data-name="Слой 2"><g id="Layer_1" data-name="Layer 1"><path class="cls-1" d="M42.6,0c9,0,11.9,6.5,14.3,13,1,2.7,24.5,67,25.2,69a1.28,1.28,0,0,1-.8,1.7c-.8.3-13,5.1-13.7,5.3a1.3,1.3,0,0,1-1.7-.8c-.3-.7-5.3-14.7-5.9-16.3H25.2c-.6,1.6-5.7,15.6-5.9,16.3a1.34,1.34,0,0,1-1.7.8c-.7-.3-13-5-13.7-5.3A1.42,1.42,0,0,1,3.1,82c.9-2.4,24-65.7,25.2-69C30.6,6.6,33.5,0,42.6,0ZM1.3,115.1A1.35,1.35,0,0,0,0,116.5v15a1.32,1.32,0,0,0,1.3,1.3H83.9a1.32,1.32,0,0,0,1.3-1.3v-15a1.42,1.42,0,0,0-1.3-1.4H1.3M42.5,21,30.7,56.3H54.4L42.6,21Z"/></g></g></svg>