<?xml version="1.0" encoding="utf-8"?>
<!-- Generator: Adobe Illustrator 21.0.2, SVG Export Plug-In . SVG Version: 6.00 Build 0)  -->
<svg version="1.1" id="Layer_1" xmlns="http://www.w3.org/2000/svg" xmlns:xlink="http://www.w3.org/1999/xlink" x="0px" y="0px"
	 viewBox="0 0 449.9 132.8" style="enable-background:new 0 0 449.9 132.8;" xml:space="preserve">
<style type="text/css">
	.st0{fill:#EE3524;}
</style>
<path class="st0" d="M43.9,0c9,0,11.9,6.5,14.3,13c1,2.7,24.5,67,25.2,69c0.2,0.5,0.1,1.4-0.8,1.7c-0.8,0.3-13,5.1-13.7,5.3
	c-0.7,0.3-1.4-0.1-1.7-0.8c-0.3-0.7-5.3-14.7-5.9-16.3c-1.7,0-33.1,0-34.8,0c-0.6,1.6-5.7,15.6-5.9,16.3c-0.2,0.6-1,1.1-1.7,0.8
	c-0.7-0.3-13-5-13.7-5.3c-0.7-0.3-1-1.1-0.8-1.7c0.9-2.4,24-65.7,25.2-69C31.9,6.6,34.8,0,43.9,0z M2.6,115.1
	c-0.7,0-1.3,0.6-1.3,1.4v15c0,0.7,0.6,1.3,1.3,1.3h82.6c0.7,0,1.3-0.6,1.3-1.3v-15c0-0.7-0.6-1.4-1.3-1.4H2.6 M43.8,21L32,56.3h23.7
	L43.9,21H43.8z M351.2,72.8c0,4-2.2,6.6-6.3,6.6c-1.6,0-2.9,0-5-0.6V66.8c0.9-0.2,2.8-0.5,5-0.4C349,66.6,351.2,68.5,351.2,72.8z
	 M359.5,72.2c0-7.4-4.3-12.5-13.5-12.5c-2.2,0-3.8,0.2-6.2,0.8l0-10.7c1.5-0.2,4.1-0.4,6.9-0.4c2.7,0,6.1,0.1,9.1,0.5l0.2-6.2
	c-3.4-0.8-8.3-1.2-12.1-1.2c-3.8,0-9.6,0.9-12.4,1.7l0,39.4c4.3,1.6,8.6,2.3,12.9,2.3C354.4,86,359.5,80.7,359.5,72.2z M264.6,70.1
	c0,5.5-2.2,9-5.8,9c-1.5,0-2.3-0.1-4-0.6V62c1.9-0.9,2.9-0.9,4.4-0.9C262.8,61.1,264.6,64.1,264.6,70.1 M237.1,70.3
	c0-6,1.8-9.2,5.4-9.2c1.5,0,2.5,0,4.4,0.9v16.5c-1.7,0.6-2.5,0.6-4,0.6C238.8,79.1,237.1,75.8,237.1,70.3 M254.8,95V84.3
	c1,0.6,3,1.5,6.3,1.5c6.7,0,11.6-5.5,11.6-15.6c0-10.9-4.9-15.6-12.9-15.6c-2,0-3.4,0.2-5,1V42.7H247v12.8c-1.6-0.8-3-1-5-1
	c-8,0-12.9,4.9-12.9,15.7c0,10.1,4.4,15.5,11.6,15.5c3.4,0,5.3-0.9,6.3-1.5V95H254.8 M195.3,85.2V56.4c-4.3-1.3-7.6-1.8-12-1.8
	c-4.3,0-7.6,0.6-11.9,1.8v14.8c0,4-0.1,5.2-0.5,6.5c-0.4,1.1-1,2.5-2.6,3.6l2.1,4.6c6.3-1.8,8.7-4.5,8.7-13.3V61.7
	c2.1-0.3,2.5-0.4,4.2-0.4c1.7,0,2,0.1,4.1,0.4v23.5H195.3z M292.2,78.9c-1.7,0.6-2.9,0.7-4.2,0.7c-2.8,0-4.4-1.1-4.4-4
	c0-3,2-4,5.9-4c0.9,0,1.9,0.1,2.3,0.3v2.2C291.8,76.4,291.9,77.9,292.2,78.9z M302.1,82.4c-2.1-3.2-2.6-5-2.6-9v-8.1
	c0-4.4-0.5-6-1.7-7.5c-1.6-2.2-4.3-3.2-9.2-3.2c-3.5,0-6.9,0.4-10.1,1.2l1.2,5.8c2.2-0.3,4.5-0.6,6.2-0.6c5.2,0,5.8,0.8,5.8,4.7v1.5
	c-1.2-0.3-2.5-0.5-4-0.5c-7.9,0-12,3.8-12,10.2c0,5.9,4.4,9.2,9.8,9.2c2,0,4.1-0.4,5.8-1c1-0.4,1.4-0.7,2.7-1.5
	c0.8,1.2,2.3,2.3,3,2.5L302.1,82.4z M378.9,78.9c-1.7,0.6-2.9,0.7-4.2,0.7c-2.8,0-4.4-1.1-4.4-4c0-3,2-4,5.9-4
	c0.9,0,1.9,0.1,2.3,0.3v2.2C378.5,76.4,378.6,77.9,378.9,78.9z M388.9,82.4c-2.1-3.2-2.6-5-2.6-9v-8.1c0-4.4-0.5-6-1.6-7.5
	c-1.6-2.2-4.3-3.2-9.2-3.2c-3.5,0-6.9,0.4-10.1,1.2l1.2,5.8c2.2-0.3,4.5-0.6,6.2-0.6c5.2,0,5.8,0.8,5.8,4.7v1.5
	c-1.2-0.3-2.5-0.5-4-0.5c-7.9,0-12,3.8-12,10.2c0,5.9,4.4,9.2,9.8,9.2c2,0,4.1-0.4,5.8-1c1-0.4,1.4-0.7,2.7-1.5
	c0.8,1.2,2.4,2.3,3,2.5L388.9,82.4z M217.7,74.9c0,3-1,5-4.8,5c-1.3,0-1.8,0-3.4-0.5v-8.6c2-0.4,2.2-0.5,3.4-0.5
	C216.4,70.3,217.7,72,217.7,74.9z M201.5,55l0,28.6c3.7,1.6,7.8,2.3,11.5,2.3c8.3,0,12.8-4.3,12.8-11.4c0-6.4-4-10.4-11.3-10.4
	c-1.9,0-3,0.2-5,0.7V55H201.5z M417.6,85.2V55.3h-7.9v11.3h-8.9V55.3H393v29.9h7.9V73h8.9v12.2H417.6z M449.9,85.2
	c0,0-4.3-9.2-5.3-11.2c-1.2-2.3-2.3-4-4.7-4.5v-0.1c1.6-0.3,2.9-1.3,4.3-4.3c1.3-2.9,1.7-3.6,2.5-4.2c0.8-0.7,1.8-0.4,1.8-0.4
	l0.4-5.4c-1.1-0.1-2.4-0.2-3.7-0.1c-2.1,0.1-3.2,0.7-4.3,1.8c-0.8,0.8-1.4,2-2.1,3.4c-0.7,1.5-1.3,2.7-2.1,4.3
	c-0.8,1.6-1.1,2.3-3.2,2.3h-1.3V55.3h-7.9v29.9h7.9V73l1.1,0c2.2,0,2.6,0.6,3.8,2.9c1.4,2.8,4.1,9.3,4.1,9.3H449.9z M156.8,85.2h9.1
	l-13.7-41.8c-1.4-0.5-3.2-0.8-5.1-0.8c-2.1,0-2.8,0.3-4.4,0.8l-14.5,41.8h8.7c0,0,1.2-3.7,2.6-8.2h15
	C155.7,81.6,156.8,85.2,156.8,85.2z M141.6,70c0,0,2.5-8.4,2.9-9.7c1-3.4,2.5-8.8,2.5-8.8h0.2c0,0,1.4,5.6,2.3,8.7
	c0.4,1.2,2.7,9.7,2.7,9.7H141.6z M315.5,65.2c-2.8,0-5,2.3-5,5c0,2.8,2.3,5,5,5c2.8,0,5-2.2,5-5C320.5,67.5,318.3,65.2,315.5,65.2z"
	/>
</svg>
