<?xml version="1.0" encoding="utf-8"?>
<!-- Generator: Adobe Illustrator 21.0.2, SVG Export Plug-In . SVG Version: 6.00 Build 0)  -->
<svg version="1.1" id="Capa_1" xmlns="http://www.w3.org/2000/svg" xmlns:xlink="http://www.w3.org/1999/xlink" x="0px" y="0px"
	 viewBox="0 0 361.7 361.7" style="enable-background:new 0 0 361.7 361.7;" xml:space="preserve">
<style type="text/css">
	.st0{fill:#FFFFFF;}
</style>
<path class="st0" d="M347.7,361.7c-3.8,0-7.3-1.4-9.9-4.1l-157-157l-157,157c-2.6,2.6-6.1,4.1-9.9,4.1c-3.8,0-7.3-1.4-9.9-4.1
	c-5.5-5.5-5.5-14.3,0-19.8l157-157l-157-157C1.5,21.2,0,17.7,0,14c0-3.8,1.4-7.3,4.1-9.9C6.7,1.4,10.2,0,14,0c3.8,0,7.3,1.4,9.9,4.1
	l157,157l157-157c2.6-2.6,6.1-4.1,9.9-4.1s7.3,1.4,9.9,4.1c2.6,2.6,4.1,6.1,4.1,9.9c0,3.8-1.4,7.3-4.1,9.9l-157,157l157,157
	c2.6,2.6,4.1,6.2,4.1,9.9s-1.5,7.3-4.1,9.9C355,360.3,351.5,361.7,347.7,361.7z"/>
</svg>
