<?xml version="1.0" encoding="utf-8"?>
<!-- Generator: Adobe Illustrator 21.0.2, SVG Export Plug-In . SVG Version: 6.00 Build 0)  -->
<svg version="1.1" id="Layer_1" xmlns="http://www.w3.org/2000/svg" xmlns:xlink="http://www.w3.org/1999/xlink" x="0px" y="0px"
	 viewBox="0 0 44 50.7" style="enable-background:new 0 0 44 50.7;" xml:space="preserve">
<style type="text/css">
	.st0{fill:#FFFFFF;}
</style>
<g>
	<polygon class="st0" points="22.1,16.9 21.9,16.9 22,17 	"/>
	<path class="st0" d="M43.9,49.2L32.9,30c1.8-1.5,2.5-3,2.6-3.1c0.2-0.5,0-1.1-0.5-1.3c-0.5-0.2-1.1,0-1.3,0.5
		c0,0.1-0.5,1.1-1.7,2.2L25.6,17c0.6,0,1-0.4,1-1V1c0-0.6-0.4-1-1-1H19c-0.6,0-1,0.4-1,1v14.9c0,0.5,0.3,0.8,0.8,1l-6.3,11
		c-0.9-0.9-1.2-1.7-1.2-1.8c-0.2-0.5-0.8-0.8-1.3-0.6c-0.5,0.2-0.8,0.8-0.6,1.3c0,0.1,0.6,1.5,2.1,2.9L0.1,49.2
		c-0.3,0.5-0.1,1.1,0.4,1.4c0.2,0.1,0.3,0.1,0.5,0.1c0.3,0,0.7-0.2,0.9-0.5l11-19.3c1.8,1.2,4.5,2.2,8.3,2.3v2.9c0,0.6,0.4,1,1,1
		s1-0.4,1-1v-2.9c3.6-0.2,6.2-1.1,8.1-2.2l10.9,19.1c0.2,0.3,0.5,0.5,0.9,0.5c0.2,0,0.3,0,0.5-0.1C44,50.3,44.1,49.7,43.9,49.2z
		 M23.7,18l5.7,9.9l-6.2-9.1L23.7,18z M24.4,2v12.9c-0.1,0-0.1-0.1-0.2-0.1L23,12.6c-0.2-0.4-0.6-0.5-1-0.5c-0.4-0.1-0.8,0.1-1,0.5
		l-1.2,2.1V2H24.4z M20.2,18l0.6,0.8l-6.9,10.4l0,0L20.2,18z M22.1,28.4c-0.6,0-1,0.4-1,1v1.9c-2.3-0.1-4.1-0.5-5.5-1.1l6.4-9.5
		l6.5,9.6c-1.4,0.6-3.2,1-5.4,1.1v-1.9C23.1,28.8,22.7,28.4,22.1,28.4z"/>
</g>
</svg>
