<?xml version="1.0" encoding="utf-8"?>
<!-- Generator: Adobe Illustrator 21.0.2, SVG Export Plug-In . SVG Version: 6.00 Build 0)  -->
<svg version="1.1" id="Capa_1" xmlns="http://www.w3.org/2000/svg" xmlns:xlink="http://www.w3.org/1999/xlink" x="0px" y="0px"
	 viewBox="0 0 383.8 477" style="enable-background:new 0 0 383.8 477;" xml:space="preserve">
<style type="text/css">
	.st0{fill:#F6590E;}
</style>
<g>
	<path class="st0" d="M192.4,0C87,0,1.2,85.8,1.2,191.2c0,12,1.1,24.1,3.4,35.9c0.1,0.7,0.5,2.8,1.3,6.4
		c2.9,12.9,7.2,25.6,12.8,37.7C39.3,319.7,84.6,394.2,184,474c2.5,2,5.5,3,8.5,3s6-1,8.5-3c99.3-79.8,144.7-154.3,165.3-202.8
		c5.6-12.1,9.9-24.7,12.8-37.7c0.8-3.6,1.2-5.7,1.3-6.4c2.2-11.8,3.4-23.9,3.4-35.9C383.6,85.8,297.8,0,192.4,0z M353.6,222.4
		c0,0.2-0.1,0.4-0.1,0.6c-0.1,0.5-0.4,2-0.9,4.3c0,0.1,0,0.1,0,0.2c-2.5,11.2-6.2,22.1-11.1,32.6c-0.1,0.1-0.1,0.3-0.2,0.4
		c-18.7,44.3-59.7,111.9-148.9,185.6C103.2,372.4,62.2,304.8,43.5,260.5c-0.1-0.1-0.1-0.3-0.2-0.4c-4.8-10.4-8.5-21.4-11.1-32.6
		c0-0.1,0-0.1,0-0.2c-0.6-2.3-0.8-3.8-0.9-4.3c0-0.2-0.1-0.4-0.1-0.7c-2-10.3-3-20.7-3-31.2c0-90.5,73.7-164.2,164.2-164.2
		s164.2,73.7,164.2,164.2C356.6,201.7,355.6,212.2,353.6,222.4z"/>
	<path class="st0" d="M192.4,106.3c-48,0-87,39-87,87c0,48,39,87,87,87s87-39,87-87C279.4,145.3,240.4,106.3,192.4,106.3z
		 M192.4,254.3c-33.6,0-61-27.4-61-61s27.4-61,61-61s61,27.4,61,61S226,254.3,192.4,254.3z"/>
</g>
</svg>
