<?xml version="1.0" encoding="utf-8"?>
<!-- Generator: Adobe Illustrator 21.0.2, SVG Export Plug-In . SVG Version: 6.00 Build 0)  -->
<svg version="1.1" id="Layer_1" xmlns="http://www.w3.org/2000/svg" xmlns:xlink="http://www.w3.org/1999/xlink" x="0px" y="0px"
	 viewBox="0 0 229.7 92.1" style="enable-background:new 0 0 229.7 92.1;" xml:space="preserve">
<style type="text/css">
	.st0{fill:#333333;}
	.st1{fill:#FF6319;}
</style>
<g>
	<g>
		<path class="st0" d="M83,45.5V24h15.7v4.3H87.8v3h4.5c4.9,0,8.2,2.9,8.2,7.1s-3.3,7.1-8.2,7.1H83z M92,41.2c1.7,0,3.7-0.5,3.7-3
			c0-1.9-1.3-3-3.7-3h-4.2v6H92z"/>
		<path class="st0" d="M83.3,24.2h15.2v3.9H87.6v3.4h4.7c5,0,8,2.9,8,6.9s-3,6.9-8,6.9h-9.1V24.2H83.3z M92,41.4
			c2.5,0,3.9-1.1,3.9-3.2S94.4,35,92,35h-4.4v6.4H92z"/>
		<path class="st0" d="M104.5,45.4V24h9.4c4.6,0,7.5,2.6,7.5,6.5c0,4-2.9,6.6-7.5,6.6h-4.7v8.3H104.5z M113.6,33
			c2,0,3.1-0.9,3.1-2.4s-1.1-2.4-3.1-2.4h-4.4V33H113.6z"/>
		<path class="st0" d="M104.7,24.2h9.2c4.6,0,7.3,2.6,7.3,6.3s-2.7,6.4-7.3,6.4H109v8.3h-4.3V24.2z M113.6,33.2c2,0,3.3-0.9,3.3-2.6
			c0-1.7-1.3-2.6-3.3-2.6H109v5.2H113.6z"/>
		<polygon class="st0" points="125,45.5 125,24 129.7,24 129.7,37.3 139.6,24 143.6,24 143.6,45.4 138.9,45.4 138.9,32.1 
			128.9,45.5 		"/>
		<path class="st0" d="M125.2,24.2h4.3v13.7l10.2-13.7h3.7v21h-4.3V31.5l-10.3,13.8h-3.6C125.2,45.3,125.2,24.2,125.2,24.2z"/>
		<polygon class="st0" points="148.7,45.4 148.7,24 164.2,24 164.2,28.3 153.4,28.3 153.4,45.4 		"/>
		<path class="st0" d="M148.8,24.2H164v3.9h-10.8v17.1h-4.3L148.8,24.2L148.8,24.2z"/>
		<path class="st0" d="M179.5,45.4l-2.1-4.9h-8.6l-2.1,4.9h-4.9l9.3-21.5h4.4l9.2,21.5H179.5z M175.9,36.6l-2.8-6.6l-2.8,6.6H175.9z
			"/>
		<path class="st0" d="M171.1,24.1h4.1l9,21.1h-4.6l-2.1-4.9h-8.9l-2.1,4.9H162L171.1,24.1z M176.2,36.8l-3.1-7.3l-3.1,7.3H176.2z"
			/>
		<path class="st0" d="M204.3,49.8v-4.3h-14.1v4.3h-4.4v-8.6h2.2c1.9-3,2.7-6.9,2.7-13.6v-3.5h15.2v17.1h2.9v8.6H204.3z M201.1,41.2
			V28.3h-5.8c0,4.1-0.2,8.8-2.2,12.9H201.1z"/>
		<path class="st0" d="M186,41.4h2.1c1.9-2.9,2.8-6.7,2.8-13.8v-3.3h14.8v17.1h2.9v8.2h-4.1v-4.3H190v4.3h-4V41.4z M201.3,41.4V28.1
			h-6.2c0,4.4-0.2,9.1-2.3,13.3H201.3z"/>
		<path class="st0" d="M215.4,45.9c-1.1,0-2.5-0.2-3.3-0.6l-0.1-0.1V41l0.3,0.1c0.8,0.4,1.7,0.6,2.3,0.6c1.5,0,2.4-0.4,3.5-2.7
			L210,24.1h5.3l5.2,10l4.6-10h5l-7.8,16.7C220.6,44.1,218.2,45.9,215.4,45.9z"/>
		<path class="st0" d="M212.2,45.1v-3.8c0.8,0.4,1.8,0.6,2.4,0.6c1.7,0,2.6-0.6,3.7-2.9l-8-14.7h4.8l5.3,10.3l4.7-10.3h4.6L222,40.7
			c-2,4.2-4.7,5-6.6,5C214.3,45.7,212.9,45.5,212.2,45.1z"/>
		<polygon class="st0" points="96.9,78.4 96.9,69.2 87.8,69.2 87.8,78.4 83.1,78.4 83.1,57 87.8,57 87.8,64.9 96.9,64.9 96.9,57 
			101.6,57 101.6,78.4 		"/>
		<path class="st0" d="M83.3,57.2h4.3v7.9h9.5v-7.9h4.3v21h-4.3V69h-9.5v9.2h-4.3V57.2z"/>
		<path class="st0" d="M122.4,78.4l-2.1-4.9h-8.6l-2.1,4.9h-4.8l9.2-21.5h4.4l9.2,21.5H122.4z M118.8,69.6L116,63l-2.8,6.6H118.8z"
			/>
		<path class="st0" d="M114,57.1h4.1l9,21.1h-4.6l-2.1-4.9h-8.9l-2.1,4.9H105L114,57.1z M119.1,69.8l-3.1-7.3l-3.1,7.3H119.1z"/>
		<path class="st0" d="M147.2,82.8v-4.3h-14v4.3h-4.5v-8.6h2.2c1.9-3,2.7-6.9,2.7-13.6v-3.5h15.2v17.1h2.9v8.6H147.2z M144,74.2
			V61.3h-5.8c0,4.1-0.2,8.8-2.2,12.9H144z"/>
		<path class="st0" d="M128.9,74.4h2.1c1.9-2.9,2.8-6.7,2.8-13.8v-3.3h14.8v17.1h2.9v8.2h-4.1v-4.3H133v4.3h-4.1V74.4z M144.2,74.4
			V61.1H138c0,4.4-0.2,9.1-2.3,13.3H144.2z"/>
		<path class="st0" d="M165.5,78.8c-6.3,0-11.1-4.8-11.1-11.1s4.8-11.1,11.1-11.1c6.2,0,11.1,4.9,11.1,11.1
			C176.6,73.9,171.7,78.8,165.5,78.8z M165.4,61c-3.7,0-6.3,2.8-6.3,6.7c0,3.9,2.6,6.7,6.3,6.7s6.3-2.8,6.3-6.7
			C171.7,63.8,169.1,61,165.4,61z"/>
		<path class="st0" d="M154.6,67.7c0-6.1,4.6-10.9,10.9-10.9c6.3,0,10.9,4.9,10.9,10.9s-4.6,10.9-10.9,10.9
			C159.1,78.6,154.6,73.8,154.6,67.7z M171.9,67.7c0-4-2.8-6.9-6.5-6.9s-6.5,2.9-6.5,6.9s2.8,6.9,6.5,6.9
			C169.1,74.6,171.9,71.7,171.9,67.7z"/>
	</g>
</g>
<path class="st1" d="M11.3,92.3V81.7H-0.2V24.3l0.1-0.1C5.1,20.2,31.1-0.2,32.2-0.2c0.2,0,0.9,0,16.3,12.3
	c0.2,0.1,15.4,12.2,15.4,12.4v55.7h-6.4V27.5L32.2,7.4l-26,20.1v47.8h5.1V48H37c9.3,0,16.9,7.6,16.9,16.9S46.3,81.8,37,81.8H17.7
	v10.5H11.3z M37,75.3c5.7,0,10.4-4.7,10.4-10.4c0-5.7-4.7-10.4-10.4-10.4H17.7v20.8H37z"/>
<path class="st1" d="M32.2,0C31.2-0.1,0,24.4,0,24.4v57.1h11.5v10.6h6V81.6h2.8h8.6H37c9.2,0,16.7-7.5,16.7-16.7S46.2,48.2,37,48.2
	H11.5v27.3H6V27.4L32.2,7.1l25.5,20.3v44.8l0,0V80h6v-3.3v-4.5V24.5C63.8,24.5,33.3-0.1,32.2,0z M17.5,54.3H37
	c5.9,0,10.6,4.8,10.6,10.6c0,5.9-4.8,10.6-10.6,10.6h-8.1h-8.6h-2.8V54.3z"/>
</svg>
