<?xml version="1.0" encoding="utf-8"?>
<!-- Generator: Adobe Illustrator 21.0.2, SVG Export Plug-In . SVG Version: 6.00 Build 0)  -->
<svg version="1.1" id="Capa_1" xmlns="http://www.w3.org/2000/svg" xmlns:xlink="http://www.w3.org/1999/xlink" x="0px" y="0px"
	 viewBox="0 0 81.6 109.7" style="enable-background:new 0 0 81.6 109.7;" xml:space="preserve">
<style type="text/css">
	.st0{fill:url(#SVGID_1_);}
</style>
<linearGradient id="SVGID_1_" gradientUnits="userSpaceOnUse" x1="73.2998" y1="83.5173" x2="12.6237" y2="11.2063">
	<stop  offset="0" style="stop-color:#FB6D28"/>
	<stop  offset="1" style="stop-color:#F5590E"/>
</linearGradient>
<path class="st0" d="M40.8,0C18.3,0,0,18.3,0,40.8c0,27.9,36.5,65.9,38.1,67.6c1.5,1.6,4,1.6,5.5,0c1.6-1.7,38.1-39.7,38.1-67.6
	C81.6,18.3,63.3,0,40.8,0z M40.9,59.2c-10,0-18.2-8.2-18.2-18.2s8.2-18.2,18.2-18.2c10,0,18.2,8.2,18.2,18.2S50.9,59.2,40.9,59.2z"
	/>
</svg>
