<?xml version="1.0" encoding="utf-8"?>
<!-- Generator: Adobe Illustrator 21.0.2, SVG Export Plug-In . SVG Version: 6.00 Build 0)  -->
<svg version="1.1" id="Layer_1" xmlns="http://www.w3.org/2000/svg" xmlns:xlink="http://www.w3.org/1999/xlink" x="0px" y="0px"
	 viewBox="0 0 492 318" style="enable-background:new 0 0 492 318;" xml:space="preserve">
<style type="text/css">
	.st0{fill:#FFFFFF;}
</style>
<g>
	<g>
		<g>
			<path class="st0" d="M334,261c-56.2,0-102-45.8-102-102S277.8,57,334,57s102,45.8,102,102S390.2,261,334,261z M334,69
				c-49.6,0-90,40.4-90,90s40.4,90,90,90s90-40.4,90-90S383.6,69,334,69z"/>
			<path class="st0" d="M0,317V209h184.1l-0.8-2.6c-4.8-15.3-7.3-31.3-7.3-47.4C176,71.9,246.9,1,334,1s158,70.9,158,158v158H0z
				 M332.9,13C253.6,13.6,188.6,78.6,188,157.9c-0.3,39.2,14.8,76.1,42.4,103.9C258.1,289.7,294.9,305,334,305h146V159
				c0-80.5-65.5-146-146-146L332.9,13z M204,305h60.7l0.9-3.8c-34.1-16.5-61.2-44.5-76.3-79l-0.5-1.2H12.2v84H96v-16h12v16h36v-32
				h12v32h36v-16h12V305z"/>
			<rect x="328" y="153" class="st0" width="12" height="12"/>
			<rect x="328" y="185" class="st0" width="12" height="12"/>
			<rect x="328" y="121" class="st0" width="12" height="12"/>
		</g>
	</g>
</g>
<rect y="182.5" class="st0" width="12" height="91"/>
<polyline class="st0" points="8,305 44,305 44,273 56,273 56,305 92,305 "/>
</svg>
