<?xml version="1.0" encoding="utf-8"?>
<!-- Generator: Adobe Illustrator 21.0.2, SVG Export Plug-In . SVG Version: 6.00 Build 0)  -->
<svg version="1.1" id="Capa_1" xmlns="http://www.w3.org/2000/svg" xmlns:xlink="http://www.w3.org/1999/xlink" x="0px" y="0px"
	 viewBox="0 0 360.5 902.8" style="enable-background:new 0 0 360.5 902.8;" xml:space="preserve">
<style type="text/css">
	.st0{fill:#F5590E;}
</style>
<g>
	<path class="st0" d="M180.3,0C80.9,0,0,82.1,0,183.1v145.8C0,429.9,80.9,512,180.3,512c99.4,0,180.3-81.9,180.3-182.5V183.1
		C360.5,82.1,279.7,0,180.3,0z M326.6,329.5c0,82-65.7,148.6-146.4,148.6c-80.7,0-146.4-66.9-146.4-149.2V183.1
		c0-82.3,65.7-149.2,146.4-149.2c80.7,0,146.4,66.9,146.4,149.2V329.5z"/>
	<path class="st0" d="M180.3,140.1c-9.4,0-17,7.6-17,17v59.3c0,9.4,7.6,17,17,17s17-7.6,17-17v-59.3
		C197.2,147.7,189.6,140.1,180.3,140.1z"/>
	<path class="st0" d="M297.4,745.7L180.3,862.8L63.1,745.7c-6.6-6.6-17.4-6.6-24,0c-6.6,6.6-6.6,17.4,0,24l128.2,128.2
		c3.5,3.5,8.2,5.2,12.9,4.9c4.6,0.2,9.3-1.4,12.9-4.9l128.2-128.2c6.6-6.6,6.6-17.4,0-24C314.8,739.1,304,739.1,297.4,745.7z"/>
</g>
</svg>
