<?xml version="1.0" encoding="utf-8"?>
<!-- Generator: Adobe Illustrator 21.0.2, SVG Export Plug-In . SVG Version: 6.00 Build 0)  -->
<svg version="1.1" id="Capa_1" xmlns="http://www.w3.org/2000/svg" xmlns:xlink="http://www.w3.org/1999/xlink" x="0px" y="0px"
	 viewBox="0 0 363.3 512" style="enable-background:new 0 0 363.3 512;" xml:space="preserve">
<style type="text/css">
	.st0{fill:#F5590E;}
</style>
<g>
	<g>
		<path class="st0" d="M183,0C83.6,0,2.7,82.1,2.7,183.1v145.8C2.7,429.9,83.6,512,183,512c99.4,0,180.3-81.9,180.3-182.5V183.1
			C363.3,82.1,282.4,0,183,0z M329.4,329.5c0,82-65.7,148.6-146.4,148.6c-80.7,0-146.4-66.9-146.4-149.2V183.1
			c0-82.3,65.7-149.2,146.4-149.2c80.7,0,146.4,66.9,146.4,149.2V329.5z"/>
	</g>
</g>
<g>
	<g>
		<path class="st0" d="M183,140.1c-9.4,0-17,7.6-17,17v59.3c0,9.4,7.6,17,17,17c9.4,0,17-7.6,17-17v-59.3
			C200,147.7,192.4,140.1,183,140.1z"/>
	</g>
</g>
</svg>
