<?xml version="1.0" encoding="utf-8"?>
<!-- Generator: Adobe Illustrator 21.0.2, SVG Export Plug-In . SVG Version: 6.00 Build 0)  -->
<svg version="1.1" id="Layer_1" xmlns="http://www.w3.org/2000/svg" xmlns:xlink="http://www.w3.org/1999/xlink" x="0px" y="0px"
	 viewBox="0 0 45 54.7" style="enable-background:new 0 0 45 54.7;" xml:space="preserve">
<style type="text/css">
	.st0{fill:#FFFFFF;}
</style>
<g>
	<path class="st0" d="M45,48.9l-0.9-4.3c-0.1-0.3-0.3-0.6-0.6-0.7L41,43l-0.8-3.9l2.8-0.6c0.3-0.1,0.5-0.2,0.6-0.4s0.2-0.5,0.1-0.8
		l-0.6-2.7c-0.1-0.3-0.2-0.5-0.5-0.7l-4-2.1l-1.5-7.3c4.8-2.8,7.4-8.4,6.3-14c-0.7-3.4-2.7-6.4-5.6-8.3c-2.9-1.9-6.4-2.6-9.9-1.9
		c-3.4,0.8-6.4,2.8-8.3,5.7s-2.6,6.3-1.9,9.7c0,0,0,0-0.1,0c0,0-0.1,0.1-0.2,0.1c-0.7,0.5-1.9,1.4-5.5,7.1
		c-3.4,5.5-3.6,8.9-3.4,10.4L5.2,35c-0.3,0.1-0.6,0.3-0.8,0.6L0.1,47.3c-0.2,0.5,0,1.1,0.6,1.3l13,5.1c0.1,0,0.2,0.1,0.4,0.1
		c0.1,0,0.3,0,0.4-0.1c0.2-0.1,0.4-0.3,0.5-0.5l4.5-11.4c0.2-0.4,0-0.8-0.2-1.1l-1-2.9c2.1-0.8,4.8-2.6,8-6.4c1.3-1.6,2.3-3.3,3-5.1
		c0.3,0,0.6,0.1,1,0.1L36,53.9c0.1,0.5,0.5,0.8,1,0.8c0.1,0,0.1,0,0.2,0l5-1c0.3-0.1,0.5-0.2,0.6-0.4s0.2-0.5,0.1-0.8L42.8,52l1.9-2
		C45,49.6,45,49.2,45,48.9z M17.4,41.5l-4,10L2.3,47.1l4-10.1l8.1-4.2l1.2,3.6c-0.7,0-1.1-0.1-1.2-0.1c-0.5-0.2-1.1,0-1.3,0.5
		s0,1.1,0.5,1.3c0.1,0,0.7,0.3,1.7,0.3c0.3,0,0.6,0,1-0.1L17.4,41.5z M24.7,30c-3,3.5-5.4,5.1-7.1,5.8L15.9,31
		c-0.1-0.3-0.3-0.5-0.6-0.6s-0.6-0.1-0.8,0l-3.9,2c0-1.4,0.5-4.2,3.1-8.4c2.7-4.3,3.9-5.7,4.6-6.3c1.5,4,4.9,7,9,8.1
		C26.6,27.3,25.8,28.8,24.7,30z M41,50.9c-0.2,0.2-0.3,0.6-0.3,0.9l0,0l-3,0.6l-5.6-27.3c-0.1-0.5-0.5-0.8-1-0.8l0,0
		c-0.3,0-0.7,0-1,0c1.3-4.3,1.4-8.5,1.2-11.5c1.4-0.6,2.4-1.9,2.4-3.5c0-2.1-1.7-3.8-3.8-3.8S26,7.2,26,9.3c0,1.9,1.4,3.5,3.3,3.8
		c0.2,2.8,0.1,7-1.3,11c-4.1-1-7.4-4.2-8.3-8.6c-0.6-2.9,0-5.9,1.6-8.4s4.1-4.2,7-4.8s5.9,0,8.4,1.6s4.2,4.1,4.8,7
		c1,4.9-1.4,9.9-5.9,12.2c-0.4,0.2-0.6,0.7-0.5,1.1l1.8,8.5c0.1,0.3,0.2,0.5,0.5,0.7l4,2.1l0.3,1.2l-2.8,0.6
		c-0.5,0.1-0.9,0.6-0.8,1.2l1.1,5.4c0.1,0.3,0.3,0.6,0.6,0.7l2.5,0.9l0.7,3.2L41,50.9z M31,10.6c-0.1-0.9-0.2-1.4-0.2-1.5
		c-0.1-0.5-0.6-0.9-1.2-0.8c-0.5,0.1-0.9,0.6-0.8,1.2c0,0,0.1,0.6,0.2,1.5c-0.6-0.4-1-1-1-1.7c0-1,0.8-1.8,1.8-1.8s1.8,0.8,1.8,1.8
		C31.6,9.8,31.4,10.3,31,10.6z"/>
</g>
</svg>
