<?xml version="1.0" encoding="utf-8"?>
<!-- Generator: Adobe Illustrator 21.0.2, SVG Export Plug-In . SVG Version: 6.00 Build 0)  -->
<svg version="1.1" id="Layer_1" xmlns="http://www.w3.org/2000/svg" xmlns:xlink="http://www.w3.org/1999/xlink" x="0px" y="0px"
	 viewBox="0 0 45.8 51.8" style="enable-background:new 0 0 45.8 51.8;" xml:space="preserve">
<style type="text/css">
	.st0{fill:#FFFFFF;}
</style>
<g>
	<path class="st0" d="M44.8,38.9h-8.6v-8c0-0.6-0.4-1-1-1H15.9c-0.6,0-1,0.4-1,1v8h-3.3v2h12.9v6.6h-13v2h13.9h0.2h19.2
		c0.6,0,1-0.4,1-1v-8.6C45.8,39.4,45.4,38.9,44.8,38.9z M16.9,38.6V32h17.4v6.6H16.9z M43.8,47.6H26.6V41h17.2
		C43.8,41,43.8,47.6,43.8,47.6z"/>
	<path class="st0" d="M8.5,35.4c0-2.1,0.9-3,1.1-3c1,0,1.6-1,1.7-2.7c4.3-0.3,6.6-2,7.8-3.3c1.2-1.4,1.8-3.1,1.6-4.9l0,0
		C20,15,17.7,0,10.4,0l0,0h-0.1C3.1,0,0.7,15,0,21.5c-0.2,1.8,0.4,3.5,1.6,4.9s3.5,3,7.8,3.3c0,0.3-0.1,0.6-0.1,0.7
		c-1.2,0.3-2.7,1.9-2.7,5c0,0,0,0,0,0.1L8.5,35.4C8.5,35.5,8.5,35.5,8.5,35.4z M3.1,25.1c-0.8-1-1.2-2.2-1.1-3.4
		C3,12.6,5.8,2,10.2,2c0,0,0.1,0,0.2,0c4.5,0,7.3,10.6,8.3,19.7c0.1,1.2-0.2,2.4-1.1,3.4s-2.7,2.3-6.2,2.6v-0.3c0-0.6-0.4-1-1-1
		s-1,0.4-1,1v0.3C5.9,27.4,4,26.2,3.1,25.1z"/>
	<path class="st0" d="M11.5,40.9v-2v-2.4c0-0.6-0.4-1-1-1h-2h-2H4.1c-0.6,0-1,0.4-1,1v14.3c0,0.6,0.4,1,1,1h6.4c0.6,0,1-0.4,1-1
		v-1.2v-2V40.9z M9.5,49.8H5.1V37.5h4.4V49.8z"/>
</g>
</svg>
