<?xml version="1.0" encoding="utf-8"?>
<!-- Generator: Adobe Illustrator 21.0.2, SVG Export Plug-In . SVG Version: 6.00 Build 0)  -->
<svg version="1.1" id="Layer_1" xmlns="http://www.w3.org/2000/svg" xmlns:xlink="http://www.w3.org/1999/xlink" x="0px" y="0px"
	 viewBox="0 0 106.6 87.1" style="enable-background:new 0 0 106.6 87.1;" xml:space="preserve">
<style type="text/css">
	.st0{fill:#FFFFFF;}
	.st1{display:none;}
	.st2{display:inline;fill:#F36315;}
</style>
<g id="Layer_1_1_">
	<g>
		<path class="st0" d="M10.5,45L10.5,45c-0.1,0-0.1,0-0.1,0H10.5z"/>
		<path class="st0" d="M5.2,55.8L5.2,55.8L5.2,55.8L5.2,55.8z"/>
		<path class="st0" d="M4.8,55.8L4.8,55.8L4.8,55.8C4.7,55.8,4.8,55.8,4.8,55.8z"/>
		<path class="st0" d="M50.7,46V4.6h-6C41.2,0.7,32.9,0,27.8,0c-6.1,0-13.2,1.4-16.4,4.6H5.2v41.9c-2.8,1.8-4.7,4.9-4.7,8.4
			c0,0.9,0.5,1.9,3.4,2.7v29.2h7.6V62.6h33.9v24.2h7.7V57.4c1.9-0.6,3.2-1.5,3.2-2.5c0-2.7-1-5.2-2.9-7C52.5,47.1,51.6,46.5,50.7,46
			z M46.1,22.3v-2v-3.5V7.1c0-0.1,0-0.4,0-0.5h0.1h2.4v13.7v1.3v0.8v20.8c0,0.5-0.1,1-0.1,1.4V45h-2h-0.4H46L46.1,22.3L46.1,22.3z
			 M7.2,15.9V6.6h2.4h0.1h1.9v1.3c0-0.1,0.1-0.2,0.1-0.2c0.1-0.2,0.1-0.3,0.2-0.5C13.5,3.8,21.3,2,27.8,2C33.5,2,38,2.8,40.9,4.2
			c0.4,0.2,0.8,0.4,1.2,0.7c0.4,0.2,0.7,0.5,0.9,0.8c0.2,0.2,0.3,0.4,0.5,0.6C43.7,6.6,44,7,44.1,7.4l0,0V4.6l0,0v2.8v0.1v12.8H11.7
			h-0.1v-5.4h-2V45c-0.1,0-0.3,0-0.4,0.1l-2-0.1V15.9z M44.1,22.3V45H11.8h-0.1h-0.1l0,0V22.3h0.1H44.1z M10.5,45h-0.1
			C10.4,45,10.4,45,10.5,45L10.5,45z M51.1,58.1v2.4v0.1L51,84.7v0.1h-3.6V60.6H9.6H9.5v24v0.2H5.9V58C6,58,6,58,6,58h44.7
			L51.1,58.1C51.1,58,51.1,58.1,51.1,58.1z M54.1,54.9c-0.4,0.3-1.2,0.7-2.5,0.9H5.2l0,0l0,0l0,0l0,0H4.8l0,0c-0.1,0-0.1,0-0.1,0
			h0.1c-1.3-0.4-2-0.6-2.2-0.9c0-3.3,2.1-6,4.9-7.3h0.1c0.5-0.2,0.9-0.4,1.5-0.5h0.3c0,0,0.7,0,0.9,0l0,0h0.1h1.2h0.2h32.3h2h0.1
			h0.1h0.1h0.1c0.7,0,1.3,0.1,2,0.3c1.3,0.4,2.4,1,3.4,2C53.4,50.9,54.2,52.8,54.1,54.9C54.2,54.8,54.1,54.8,54.1,54.9z"/>
		<path class="st0" d="M94,51.3L94,51.3V51V26.1H69.3v25.2h-6.4v35.6h43.9v-2.1V51.3H94z M82.9,39.5l9.1-9.8V49L82.9,39.5z M91,50.9
			H72.5l9.1-9.9L91,50.9z M90.7,28.1l-9.2,10l-9.5-10C72,28.1,90.7,28.1,90.7,28.1z M71.3,30.2l8.9,9.4l-8.9,9.7V30.2z M102.9,53.3
			L84.8,67.9L65.9,53.3H102.9z M64.9,55.1l18.3,14.1L64.9,83.8V55.1z M66.8,84.9l18-14.5l18.8,14.5H66.8z M104.8,83.3L86.4,69.1
			l18.4-14.7V83.3z"/>
		<polygon class="st0" points="9.6,14.9 11.6,14.9 11.6,7.9 11.6,6.6 9.7,6.6 9.6,6.6 		"/>
	</g>
</g>
<g id="Layer_2" class="st1">
	<rect x="-57.9" y="112.1" class="st2" width="2" height="5.2"/>
</g>
</svg>
