<?xml version="1.0" encoding="utf-8"?>
<!-- Generator: Adobe Illustrator 21.0.2, SVG Export Plug-In . SVG Version: 6.00 Build 0)  -->
<svg version="1.1" id="Layer_1" xmlns="http://www.w3.org/2000/svg" xmlns:xlink="http://www.w3.org/1999/xlink" x="0px" y="0px"
	 viewBox="0 0 84.4 85.2" style="enable-background:new 0 0 84.4 85.2;" xml:space="preserve">
<style type="text/css">
	.st0{fill:#FFFFFF;}
	.st1{fill:none;}
</style>
<g>
	<polygon class="st0" points="47.5,73 46.6,76.5 50.1,75.6 	"/>
	<polygon class="st0" points="60.9,14.5 61.4,14.5 61.4,12.5 60.9,12.5 59.5,12.5 10,12.5 10,14.5 59.5,14.5 	"/>
	<polygon class="st0" points="60.9,22.3 61.4,22.3 61.4,20.3 60.9,20.3 59.5,20.3 10,20.3 10,22.3 59.5,22.3 	"/>
	<polygon class="st0" points="60.9,30.2 61.4,30.2 61.4,28.2 60.9,28.2 59.5,28.2 10,28.2 10,30.2 59.5,30.2 	"/>
	<polygon class="st0" points="60.9,38.1 61.4,38.1 61.4,36.1 60.9,36.1 59.5,36.1 10,36.1 10,38.1 59.5,38.1 	"/>
	<polygon class="st0" points="60.9,45.9 61.4,45.9 61.4,43.9 60.9,43.9 59.5,43.9 10,43.9 10,45.9 59.5,45.9 	"/>
	<path class="st0" d="M78.9,38.4l-8,8V0H0.3v85.2h70.6V58l13.8-13.8L78.9,38.4z M68.9,83.2H2.3V2h66.6v46.5l-23,23l0.5,0.5l-0.6-0.2
		l-2,7.6l7.6-2l-0.2-0.6l0.5,0.5L68.9,60V83.2z M68.9,57.2L51.7,74.4l-2.9-2.9l22.1-22.1l8-8l2.9,2.9L68.9,57.2z"/>
	<line class="st1" x1="51.7" y1="74.4" x2="68.9" y2="57.2"/>
	<line class="st1" x1="78.9" y1="41.3" x2="70.9" y2="49.3"/>
</g>
</svg>
