<?xml version="1.0" encoding="utf-8"?>
<!-- Generator: Adobe Illustrator 21.0.2, SVG Export Plug-In . SVG Version: 6.00 Build 0)  -->
<svg version="1.1" id="Layer_2" xmlns="http://www.w3.org/2000/svg" xmlns:xlink="http://www.w3.org/1999/xlink" x="0px" y="0px"
	 viewBox="0 0 45.3 57.5" style="enable-background:new 0 0 45.3 57.5;" xml:space="preserve">
<style type="text/css">
	.st0{fill:#FFFFFF;}
</style>
<g>
	<path class="st0" d="M44.3,0H4.9c-0.6,0-1,0.4-1,1v4.5H1c-0.6,0-1,0.4-1,1v50.1c0,0.6,0.4,1,1,1h38.9c0.6,0,1-0.4,1-1v-3.4h3.5
		c0.6,0,1-0.4,1-1V1C45.3,0.4,44.9,0,44.3,0z M38.9,55.5H2v-48h29.4l-0.1,6.7c0,0.6,0.4,1,1,1l6.6,0.2
		C38.9,15.4,38.9,55.5,38.9,55.5z M37.5,13.3l-4.2-0.1l0.1-4.3L37.5,13.3z M43.3,51.2h-2.5V14.4c0-0.1,0-0.1,0-0.2
		c0-0.1,0-0.1,0-0.2c0-0.1-0.1-0.2-0.1-0.2s0-0.1-0.1-0.1l0,0l0,0l-7.4-7.9l0,0l0,0c0,0-0.1-0.1-0.2-0.1c-0.1,0-0.1-0.1-0.2-0.1
		h-0.1c-0.1,0-0.2,0-0.2,0l0,0H5.9V2h37.4C43.3,2,43.3,51.2,43.3,51.2z"/>
	<path class="st0" d="M6.3,21.7c0,0.5,0.4,1,1,1h25.8c0.5,0,1-0.4,1-1c0-0.5-0.4-1-1-1H7.3C6.7,20.7,6.3,21.2,6.3,21.7z"/>
	<path class="st0" d="M33.1,28.7H7.3c-0.5,0-1,0.4-1,1c0,0.5,0.4,1,1,1h25.8c0.5,0,1-0.4,1-1C34.1,29.2,33.7,28.7,33.1,28.7z"/>
	<path class="st0" d="M33.1,36.7H7.3c-0.5,0-1,0.4-1,1c0,0.5,0.4,1,1,1h25.8c0.5,0,1-0.4,1-1C34.1,37.2,33.7,36.7,33.1,36.7z"/>
	<path class="st0" d="M33.1,44.7H7.3c-0.5,0-1,0.4-1,1c0,0.5,0.4,1,1,1h25.8c0.5,0,1-0.4,1-1C34.1,45.2,33.7,44.7,33.1,44.7z"/>
</g>
</svg>
