<?xml version="1.0" encoding="utf-8"?>
<!-- Generator: Adobe Illustrator 21.0.2, SVG Export Plug-In . SVG Version: 6.00 Build 0)  -->
<svg version="1.1" id="Layer_1" xmlns="http://www.w3.org/2000/svg" xmlns:xlink="http://www.w3.org/1999/xlink" x="0px" y="0px"
	 viewBox="0 0 111.5 80.2" style="enable-background:new 0 0 111.5 80.2;" xml:space="preserve">
<style type="text/css">
	.st0{fill:#FFFFFF;}
	.st1{fill:none;}
</style>
<g>
	<path class="st0" d="M10.4,68.1l-0.3,0.2h92.2l-0.3-0.2l1.2-1.4V0.1H7.9v67.4l1.1-0.9L10.4,68.1z M9.9,2.1h91.3v64.2H9.9V2.1z"/>
	<path class="st1" d="M84.3,26.5C82.4,26,78.9,26,77.4,26v9.8c1.5,0,5.2-0.1,7-0.5c3.6-0.8,3.6-3.2,3.6-3.9
		C88.2,27.7,85,26.7,84.3,26.5z"/>
	<rect x="22.8" y="25.8" class="st1" width="26.7" height="3"/>
	<path class="st1" d="M96.1,10H16v49h80V10z M51.1,40h-30v-5h30V40z M51.5,30.8H20.8v-7h30.7V30.8z M69.8,30.8H53.3v-7h16.3
		L69.8,30.8L69.8,30.8z M85,37.1c-2.1,0.5-5.9,0.6-7.4,0.6V40H81v2h-3.4v8.5h-2V42h-4v-2h4v-2.3h-3.4v-2h3.4V24.3h1.3V24
		c0.2,0,5.5-0.1,8,0.6s5.3,2.9,5.3,6.7C90.2,34.3,88.4,36.4,85,37.1z"/>
	<rect x="55.3" y="25.8" class="st1" width="12.3" height="3"/>
	<path class="st0" d="M13.9,61h84V8H14C14,8,14,61,13.9,61z M15.9,10h80v49H16C16,59,16,10,15.9,10z"/>
	<circle class="st0" cx="56.6" cy="4.6" r="1.1"/>
	<path class="st0" d="M20.8,30.8h30.7v-7H20.8V30.8z M22.8,25.8h26.7v3H22.8V25.8z"/>
	<rect x="21" y="34.9" class="st0" width="30" height="5"/>
	<path class="st0" d="M53.3,30.8h16.3v-7H53.3V30.8z M55.3,25.8h12.3v3H55.3V25.8z"/>
	<path class="st0" d="M84.9,24.5c-2.5-0.7-7.8-0.6-8-0.6v0.3h-1.3v11.4h-3.4v2h3.4v2.3h-4v2h4v8.5h2v-8.5H81v-2h-3.4v-2.3
		c1.6,0,5.4-0.1,7.4-0.6c3.3-0.7,5.2-2.8,5.2-5.9C90.2,27.4,87.3,25.2,84.9,24.5z M84.6,35.2c-1.8,0.4-5.5,0.5-7,0.5v-9.8
		c1.5,0,5,0,6.8,0.5c0.6,0.2,3.9,1.3,3.9,4.7C88.2,32,88.2,34.3,84.6,35.2z"/>
	<path class="st0" d="M110.8,73l-7.5-6.5l-0.1,0.1L102,68l0.3,0.2l5.4,4.7H4.3l5.8-4.7l0.3-0.2l-1.3-1.6l-1.1,0.9L1,72.9H0.5v7.2
		h111v-7.2L110.8,73L110.8,73z M109.5,78.3H2.5v-3.2h107V78.3z"/>
</g>
</svg>
