<?xml version="1.0" encoding="utf-8"?>
<!-- Generator: Adobe Illustrator 21.0.2, SVG Export Plug-In . SVG Version: 6.00 Build 0)  -->
<svg version="1.1" id="Layer_1" xmlns="http://www.w3.org/2000/svg" xmlns:xlink="http://www.w3.org/1999/xlink" x="0px" y="0px"
	 viewBox="0 0 91.3 105" style="enable-background:new 0 0 91.3 105;" xml:space="preserve">
<style type="text/css">
	.st0{fill:#FFFFFF;}
</style>
<g>
	<polygon class="st0" points="23.3,79.4 23.3,79.4 23.4,79.4 	"/>
	<polygon class="st0" points="66.3,42.9 66.3,42.9 66.3,42.1 	"/>
	<ellipse class="st0" cx="27.3" cy="53.7" rx="0" ry="0"/>
	<path class="st0" d="M28.5,53.7c-0.1-0.2-0.2-0.4-0.2-0.4l0,0l-0.9,0.4l0,0l0,0l-0.9,0.4c0.1,0.3,2.8,6.4,12,6.4
		c9.1,0,11.8-6.1,12-6.4l-1.8-0.8c0,0-0.1,0.2-0.2,0.4c-0.7,1.2-3.3,4.8-9.9,4.8C31.8,58.5,29.2,54.9,28.5,53.7z"/>
	<circle class="st0" cx="29.8" cy="37.7" r="1.9"/>
	<circle class="st0" cx="46.9" cy="37.7" r="1.9"/>
	<polygon class="st0" points="32.6,31.4 26.1,31.4 26.1,32.4 26.1,33.4 32.6,33.4 	"/>
	<rect x="43.7" y="31.7" class="st0" width="6.2" height="2"/>
	<path class="st0" d="M37.4,50.9h4.5c0.3,0,0.6-0.2,0.8-0.4c0.2-0.3,0.2-0.6,0.1-0.9l-3.5-10.3c-0.2-0.5-0.7-0.8-1.3-0.6
		c-0.5,0.2-0.8,0.7-0.6,1.3l3.1,9h-3.1c-0.6,0-1,0.4-1,1S36.9,50.9,37.4,50.9z"/>
	<path class="st0" d="M85.8,82.1V53.6H71v21.1c-0.1,0-0.1,0-0.2,0h-0.9c-2.3,0-4.1,1.9-4.1,4.1c0,1.8,1.2,3.4,2.9,3.9
		c-0.2,0.1-0.3,0.2-0.5,0.3l-13.5-3.9v-11c0.1-0.1,0.2-0.1,0.2-0.1c4.7-2.1,7.6-7.3,7.6-9.4l0.5-7.8c1-0.1,2.4-0.3,3.3-1.2
		c1.3-1.3,1.6-5.2,1.7-6.6h1.3v-4.7l0,0c-0.1-5.7-0.2-14.9-0.6-17C67.7,16.1,65.5,2.1,47,0c-1-0.1-2.3,0.1-3.6,0.4
		c-1,0.2-2.1,0.4-2.9,0.4c-0.2,0-0.8-0.2-1.2-0.3c-1.1-0.3-1.5-0.4-1.8-0.4C14.1,0.1,9.3,12.8,7.8,22.3c-0.5,3.4-0.1,11.1,0.4,16.2
		l0,0c0.1,0.8,0.3,3.7,0.3,3.7l0.1,0.9h0.9c0.1,1.3,0.4,5.3,1.7,6.5c1,0.9,2.5,1.2,3.5,1.2l0.8,7.8c0,2,1.9,7.5,6.5,9.4
		c0,0,0.2,0.1,0.5,0.2V79L0,85.4l0.6,1.9L23,80.9c1.5,3,6.2,10.6,16.5,10.6c10,0,13.5-7.1,14.6-10.4l12.3,3.5c-1.3,1.5-2,3.3-2,5.3
		v6.2c0,4.9,4.7,8.9,10.5,8.9h5.9c5.8,0,10.5-4,10.5-8.9v-6.2C91.3,86.5,89,83.6,85.8,82.1z M24.4,79.2c0-0.1,0-0.1-0.1-0.2
		l-0.9,0.3l1-0.4v-9.8c2.3,1,5.6,2.3,7.4,2.6c1.6,0.3,3.9,0.4,6.3,0.4c1.9,0,3.7-0.1,5.2-0.2c0.4,0,0.8-0.1,1.2-0.1
		c2-0.3,5.7-1.7,8-2.7v10.2c-0.2,1-2.3,10.2-13.1,10.2C28.8,89.5,24.9,80.5,24.4,79.2z M23.3,79.4h0.1H23.3L23.3,79.4z M14.7,32.7
		l1-5.6l0.3-1.6l2.4-0.9c4.6-1.7,16.3-5.7,24.9-5.7c6.4,0,12.4,2.8,15.5,4.5c0.5,0.3,1.1,0.6,1.5,0.9l0.6,2.8l0,0l1.3,6.3l-1.8,25.5
		c0,1.2-2.3,5.7-6.4,7.6c-0.1,0-7,3.1-9.8,3.5c-3,0.5-9.2,0.5-12.1,0c-2.7-0.4-9.3-3.5-9.4-3.5c-3.7-1.5-5.3-6.1-5.3-7.6L14.7,32.7z
		 M53.6,68.1L53.6,68.1L53.6,68.1L53.6,68.1z M64.8,48.2c-0.4,0.4-1.1,0.5-1.7,0.6l0.6-8.3l0.5,2.5h1.7
		C65.8,45.2,65.3,47.7,64.8,48.2z M66.3,42.9v-0.8V42.9L66.3,42.9z M40.4,2.8c0.9,0,2-0.2,3-0.4c0.1,0,0.2,0,0.3-0.1
		c1.1-0.2,2.3-0.4,3-0.3c17,1.9,19,14.4,19.9,19.7c0.2,1.4,0.4,7.9,0.5,17.2l0,0v2.2h-0.8h-0.5l-0.3-1.5l0,0L64.2,33l-0.7-3.7
		L63,26.8l0,0l-0.8-4l-0.4-0.2l0,0c0,0-1.2-0.7-1.9-1.1l-0.5,0.9l0.5-0.9c-3.2-1.8-9.7-4.7-16.5-4.7c-8.6,0-19.7,3.7-25.6,5.9
		l0.3,0.9l-0.4-0.9l-3,1.2L14.3,24l-0.5,2.7L13.4,29l-0.6,3.5l-1.1,6.3l0,0L11.3,41h-0.8c0-0.4-0.1-0.9-0.1-1.3l0,0
		c-0.3-3.9-1.1-13.5-0.5-17.1C11.4,13,16,2,37.5,2c0.2,0,0.9,0.2,1.3,0.3c0.2,0,0.3,0.1,0.4,0.1C39.8,2.7,40.2,2.8,40.4,2.8z
		 M12.5,48.2c-0.5-0.5-1-3-1.1-5.1h1.4l0.6-3.3l0.9,9.1C13.7,48.8,12.9,48.6,12.5,48.2z M89.3,96.1c0,3.8-3.8,6.9-8.5,6.9h-5.9
		c-4.1,0-7.6-2.4-8.3-5.6H75v-1v-1h-8.7v-4.8H75v-1v-1h-8.5c0.3-1.3,1-2.4,2-3.3c0.6-0.6,1.4-1.1,2.2-1.4c1.2-0.5,2.6-0.9,4.1-0.9
		h5.9c4.7,0,8.5,3.1,8.5,6.9v6.2H89.3z M67.7,78.8c0-1.2,1-2.1,2.1-2.1h0.9c0.1,0,0.1,0,0.2,0c0.4,0,0.7,0.2,1,0.3
		c0.6,0.4,0.9,1,0.9,1.8c0,0.7-0.4,1.4-0.9,1.8c-0.3,0.2-0.6,0.3-1,0.3c-0.1,0-0.1,0-0.2,0h-0.9C68.7,81,67.7,80,67.7,78.8z
		 M73,55.6h10.8v8.3h-4.2v2h4.2v5.9h-4.2v2h4.2V81h-9.5c0.4-0.6,0.6-1.3,0.6-2.1c0-1.5-0.8-2.8-1.9-3.5V55.6z"/>
	<path class="st0" d="M53.6,68.1L53.6,68.1L53.6,68.1z"/>
	<path class="st0" d="M23.4,79.4l0.9-0.3c0,0,0,0.1,0.1,0.2V79L23.4,79.4z"/>
</g>
</svg>
