<svg xmlns="http://www.w3.org/2000/svg">
    <symbol id="calc-icon_eye" viewBox="0 0 37.6 23.8">
        <g>
            <g>
                <path d="M18.8,23.8C8.6,23.8,0.5,13,0.2,12.5c-0.3-0.4-0.3-0.9,0-1.2C0.5,10.8,8.6,0,18.8,0C29,0,37.1,10.8,37.4,11.3
                    c0.3,0.4,0.3,0.9,0,1.2C37.1,13,29,23.8,18.8,23.8z M18.8,2.1c-7.7,0-14.4,7.4-16.3,9.7l-0.1,0.1L2.5,12c1.9,2.3,8.6,9.7,16.3,9.7
                    c7.7,0,14.4-7.4,16.3-9.7l0.1-0.1l-0.1-0.1C33.2,9.5,26.5,2.1,18.8,2.1z"/>
            </g>
        </g>
        <g>
            <g>
                <path d="M18.8,19.2c-4,0-7.3-3.3-7.3-7.3c0-4,3.3-7.3,7.3-7.3s7.3,3.3,7.3,7.3C26.1,15.9,22.8,19.2,18.8,19.2z
                    M18.8,6.7c-2.9,0-5.2,2.3-5.2,5.2c0,2.9,2.3,5.2,5.2,5.2s5.2-2.3,5.2-5.2C24,9,21.7,6.7,18.8,6.7z"/>
            </g>
        </g>
    </symbol>
    <symbol id="calc-icon_type" viewBox="0 0 36.3 34">
        <g>
            <path d="M36.2,23.4L22.9,0.5C22.7,0.2,22.5,0,22.1,0c0,0-0.1,0-0.1,0c0,0-0.1,0-0.1,0c-0.3,0-0.6,0.2-0.8,0.5l-4.8,8.3
                H1c-0.6,0-1,0.5-1,1v23c0,0,0,0.1,0,0.1c0,0,0,0.1,0,0.1c0,0.6,0.5,1,1,1h21c0.6,0,1-0.5,1-1c0,0,0,0,0,0c0-0.1,0-0.1,0-0.2v-7.8
                h12.2c0,0,0.1,0,0.1,0c0.2,0,0.3,0,0.5-0.1C36.3,24.5,36.4,23.9,36.2,23.4z M21,32H2V10.8h13.1L7.9,23.4c0,0,0,0,0,0.1
                c0,0.1,0,0.1-0.1,0.2c0,0.1,0,0.1,0,0.2c0,0,0,0,0,0.1c0,0,0,0.1,0,0.1c0,0.1,0,0.1,0,0.2c0,0.1,0,0.1,0.1,0.2
                c0,0.1,0.1,0.1,0.1,0.2c0,0,0.1,0.1,0.1,0.1c0,0,0.1,0.1,0.1,0.1c0,0,0,0,0.1,0c0.1,0,0.1,0,0.2,0.1c0.1,0,0.1,0,0.2,0
                c0,0,0,0,0.1,0H21V32z M23,22.9h-2H10.5l7-12.1l1.2-2L22,2.9l11.5,20H23z"/>
        </g>
    </symbol>
    <symbol id="calc-icon_size" viewBox="0 0 28.6 28.6">
        <path d="M28.6,1L28.6,1c0-0.6-0.5-1-1-1l-8,0c-0.6,0-1,0.5-1,1v0c0,0.6,0.5,1,1,1h8C28.2,2,28.6,1.6,28.6,1z"/>
        <path d="M27.6,0L27.6,0c-0.6,0-1,0.5-1,1v8c0,0.6,0.5,1,1,1h0c0.6,0,1-0.5,1-1V1C28.6,0.5,28.2,0,27.6,0z"/>
        <path d="M27.1,1.5L27.1,1.5c-0.4-0.4-1-0.4-1.4,0L17.2,10c-0.4,0.4-0.4,1,0,1.4l0,0c0.4,0.4,1,0.4,1.4,0l8.5-8.5
            C27.5,2.5,27.5,1.9,27.1,1.5z"/>
        <path d="M0,27.6L0,27.6c0,0.6,0.5,1,1,1h8c0.6,0,1-0.5,1-1v0c0-0.6-0.5-1-1-1H1C0.5,26.6,0,27.1,0,27.6z"/>
        <path d="M1,28.6L1,28.6c0.6,0,1-0.5,1-1v-8c0-0.6-0.5-1-1-1h0c-0.6,0-1,0.5-1,1l0,8C0,28.2,0.5,28.6,1,28.6z"/>
        <path d="M1.3,27.4L1.3,27.4c0.4,0.4,1,0.4,1.4,0l8.5-8.5c0.4-0.4,0.4-1,0-1.4l0,0c-0.4-0.4-1-0.4-1.4,0l-8.5,8.5
            C0.9,26.3,0.9,27,1.3,27.4z"/>
    </symbol>
    <symbol id="calc-icon_list" viewBox="0 0 36.5 25.7">
        <path d="M12.1,24.9c-0.7,0-1.2-0.5-1.2-1.2s0.5-1.2,1.2-1.2h23.2c0.7,0,1.2,0.5,1.2,1.2s-0.5,1.2-1.2,1.2H12.1z"/>
        <path d="M12.1,14c-0.7,0-1.2-0.5-1.2-1.2s0.5-1.2,1.2-1.2h23.2c0.7,0,1.2,0.5,1.2,1.2c0,0.3-0.1,0.6-0.4,0.8
            c-0.2,0.2-0.5,0.4-0.8,0.4H12.1z"/>
        <path d="M12.1,3.2c-0.7,0-1.2-0.5-1.2-1.2s0.5-1.2,1.2-1.2h23.2c0.7,0,1.2,0.5,1.2,1.2S36,3.2,35.3,3.2H12.1z"/>
        <circle cx="2.2" cy="2.2" r="2.2"/>
        <circle cx="2.2" cy="12.8" r="2.2"/>
        <circle cx="2.2" cy="23.4" r="2.2"/>
    </symbol>
    <symbol id="calc-icon_result" viewBox="0 0 22.8 38">
        <g>
            <path d="M22.7,19.8c0,0,0-0.1,0-0.1c0,0,0,0,0-0.1c0-0.1,0-0.1,0-0.2c0-0.1,0-0.2-0.1-0.2c0,0,0,0,0,0l-4.9-8l4.9-8
                c0,0,0-0.1,0-0.1c0,0,0-0.1,0-0.1c0-0.1,0-0.2,0.1-0.3c0,0,0,0,0-0.1c0,0,0-0.1,0-0.1c0,0,0-0.1,0-0.1c0-0.1-0.1-0.2-0.1-0.3
                c0,0,0,0,0,0c-0.2-0.3-0.5-0.5-0.8-0.5H2c0,0,0,0,0,0V1c0-0.6-0.5-1-1-1h0C0.5,0,0,0.5,0,1v36c0,0.6,0.5,1,1,1h0c0.6,0,1-0.5,1-1
                V20.7c0,0,0,0,0,0h19.7c0,0,0,0,0.1,0c0.1,0,0.2,0,0.2,0c0,0,0.1,0,0.1,0c0,0,0.1,0,0.1,0c0,0,0.1-0.1,0.1-0.1c0,0,0.1,0,0.1-0.1
                c0.1-0.1,0.1-0.1,0.2-0.2c0,0,0-0.1,0-0.1C22.7,19.9,22.7,19.9,22.7,19.8z M2,18.7v-15c0,0,0,0,0,0h18l-4.3,6.9
                c-0.1,0.2-0.1,0.4-0.1,0.6c0,0.2,0,0.4,0.1,0.6l4.2,6.9L2,18.7C2,18.7,2,18.7,2,18.7z"/>
        </g>
    </symbol>
</svg>