<svg xmlns="http://www.w3.org/2000/svg">

    <symbol id="help-icon_priemka" viewBox="0 0 45 54.7">
        <g>
            <path d="M45,48.9l-0.9-4.3c-0.1-0.3-0.3-0.6-0.6-0.7L41,43l-0.8-3.9l2.8-0.6c0.3-0.1,0.5-0.2,0.6-0.4s0.2-0.5,0.1-0.8
                l-0.6-2.7c-0.1-0.3-0.2-0.5-0.5-0.7l-4-2.1l-1.5-7.3c4.8-2.8,7.4-8.4,6.3-14c-0.7-3.4-2.7-6.4-5.6-8.3c-2.9-1.9-6.4-2.6-9.9-1.9
                c-3.4,0.8-6.4,2.8-8.3,5.7s-2.6,6.3-1.9,9.7c0,0,0,0-0.1,0c0,0-0.1,0.1-0.2,0.1c-0.7,0.5-1.9,1.4-5.5,7.1
                c-3.4,5.5-3.6,8.9-3.4,10.4L5.2,35c-0.3,0.1-0.6,0.3-0.8,0.6L0.1,47.3c-0.2,0.5,0,1.1,0.6,1.3l13,5.1c0.1,0,0.2,0.1,0.4,0.1
                c0.1,0,0.3,0,0.4-0.1c0.2-0.1,0.4-0.3,0.5-0.5l4.5-11.4c0.2-0.4,0-0.8-0.2-1.1l-1-2.9c2.1-0.8,4.8-2.6,8-6.4c1.3-1.6,2.3-3.3,3-5.1
                c0.3,0,0.6,0.1,1,0.1L36,53.9c0.1,0.5,0.5,0.8,1,0.8c0.1,0,0.1,0,0.2,0l5-1c0.3-0.1,0.5-0.2,0.6-0.4s0.2-0.5,0.1-0.8L42.8,52l1.9-2
                C45,49.6,45,49.2,45,48.9z M17.4,41.5l-4,10L2.3,47.1l4-10.1l8.1-4.2l1.2,3.6c-0.7,0-1.1-0.1-1.2-0.1c-0.5-0.2-1.1,0-1.3,0.5
                s0,1.1,0.5,1.3c0.1,0,0.7,0.3,1.7,0.3c0.3,0,0.6,0,1-0.1L17.4,41.5z M24.7,30c-3,3.5-5.4,5.1-7.1,5.8L15.9,31
                c-0.1-0.3-0.3-0.5-0.6-0.6s-0.6-0.1-0.8,0l-3.9,2c0-1.4,0.5-4.2,3.1-8.4c2.7-4.3,3.9-5.7,4.6-6.3c1.5,4,4.9,7,9,8.1
                C26.6,27.3,25.8,28.8,24.7,30z M41,50.9c-0.2,0.2-0.3,0.6-0.3,0.9l0,0l-3,0.6l-5.6-27.3c-0.1-0.5-0.5-0.8-1-0.8l0,0
                c-0.3,0-0.7,0-1,0c1.3-4.3,1.4-8.5,1.2-11.5c1.4-0.6,2.4-1.9,2.4-3.5c0-2.1-1.7-3.8-3.8-3.8S26,7.2,26,9.3c0,1.9,1.4,3.5,3.3,3.8
                c0.2,2.8,0.1,7-1.3,11c-4.1-1-7.4-4.2-8.3-8.6c-0.6-2.9,0-5.9,1.6-8.4s4.1-4.2,7-4.8s5.9,0,8.4,1.6s4.2,4.1,4.8,7
                c1,4.9-1.4,9.9-5.9,12.2c-0.4,0.2-0.6,0.7-0.5,1.1l1.8,8.5c0.1,0.3,0.2,0.5,0.5,0.7l4,2.1l0.3,1.2l-2.8,0.6
                c-0.5,0.1-0.9,0.6-0.8,1.2l1.1,5.4c0.1,0.3,0.3,0.6,0.6,0.7l2.5,0.9l0.7,3.2L41,50.9z M31,10.6c-0.1-0.9-0.2-1.4-0.2-1.5
                c-0.1-0.5-0.6-0.9-1.2-0.8c-0.5,0.1-0.9,0.6-0.8,1.2c0,0,0.1,0.6,0.2,1.5c-0.6-0.4-1-1-1-1.7c0-1,0.8-1.8,1.8-1.8s1.8,0.8,1.8,1.8
                C31.6,9.8,31.4,10.3,31,10.6z"/>
        </g>
    </symbol>

    <symbol id="help-icon_remont" viewBox="0 0 45.8 51.8">
        <g>
            <path d="M44.8,38.9h-8.6v-8c0-0.6-0.4-1-1-1H15.9c-0.6,0-1,0.4-1,1v8h-3.3v2h12.9v6.6h-13v2h13.9h0.2h19.2
                c0.6,0,1-0.4,1-1v-8.6C45.8,39.4,45.4,38.9,44.8,38.9z M16.9,38.6V32h17.4v6.6H16.9z M43.8,47.6H26.6V41h17.2
                C43.8,41,43.8,47.6,43.8,47.6z"/>
            <path d="M8.5,35.4c0-2.1,0.9-3,1.1-3c1,0,1.6-1,1.7-2.7c4.3-0.3,6.6-2,7.8-3.3c1.2-1.4,1.8-3.1,1.6-4.9l0,0
                C20,15,17.7,0,10.4,0l0,0h-0.1C3.1,0,0.7,15,0,21.5c-0.2,1.8,0.4,3.5,1.6,4.9s3.5,3,7.8,3.3c0,0.3-0.1,0.6-0.1,0.7
                c-1.2,0.3-2.7,1.9-2.7,5c0,0,0,0,0,0.1L8.5,35.4C8.5,35.5,8.5,35.5,8.5,35.4z M3.1,25.1c-0.8-1-1.2-2.2-1.1-3.4
                C3,12.6,5.8,2,10.2,2c0,0,0.1,0,0.2,0c4.5,0,7.3,10.6,8.3,19.7c0.1,1.2-0.2,2.4-1.1,3.4s-2.7,2.3-6.2,2.6v-0.3c0-0.6-0.4-1-1-1
                s-1,0.4-1,1v0.3C5.9,27.4,4,26.2,3.1,25.1z"/>
            <path d="M11.5,40.9v-2v-2.4c0-0.6-0.4-1-1-1h-2h-2H4.1c-0.6,0-1,0.4-1,1v14.3c0,0.6,0.4,1,1,1h6.4c0.6,0,1-0.4,1-1
                v-1.2v-2V40.9z M9.5,49.8H5.1V37.5h4.4V49.8z"/>
        </g>
    </symbol>

    <symbol id="help-icon_soglasovanie" viewBox="0 0 45.3 57.5">
        <g>
            <path d="M44.3,0H4.9c-0.6,0-1,0.4-1,1v4.5H1c-0.6,0-1,0.4-1,1v50.1c0,0.6,0.4,1,1,1h38.9c0.6,0,1-0.4,1-1v-3.4h3.5
                c0.6,0,1-0.4,1-1V1C45.3,0.4,44.9,0,44.3,0z M38.9,55.5H2v-48h29.4l-0.1,6.7c0,0.6,0.4,1,1,1l6.6,0.2
                C38.9,15.4,38.9,55.5,38.9,55.5z M37.5,13.3l-4.2-0.1l0.1-4.3L37.5,13.3z M43.3,51.2h-2.5V14.4c0-0.1,0-0.1,0-0.2
                c0-0.1,0-0.1,0-0.2c0-0.1-0.1-0.2-0.1-0.2s0-0.1-0.1-0.1l0,0l0,0l-7.4-7.9l0,0l0,0c0,0-0.1-0.1-0.2-0.1c-0.1,0-0.1-0.1-0.2-0.1
                h-0.1c-0.1,0-0.2,0-0.2,0l0,0H5.9V2h37.4C43.3,2,43.3,51.2,43.3,51.2z"/>
            <path d="M6.3,21.7c0,0.5,0.4,1,1,1h25.8c0.5,0,1-0.4,1-1c0-0.5-0.4-1-1-1H7.3C6.7,20.7,6.3,21.2,6.3,21.7z"/>
            <path d="M33.1,28.7H7.3c-0.5,0-1,0.4-1,1c0,0.5,0.4,1,1,1h25.8c0.5,0,1-0.4,1-1C34.1,29.2,33.7,28.7,33.1,28.7z"/>
            <path d="M33.1,36.7H7.3c-0.5,0-1,0.4-1,1c0,0.5,0.4,1,1,1h25.8c0.5,0,1-0.4,1-1C34.1,37.2,33.7,36.7,33.1,36.7z"/>
            <path d="M33.1,44.7H7.3c-0.5,0-1,0.4-1,1c0,0.5,0.4,1,1,1h25.8c0.5,0,1-0.4,1-1C34.1,45.2,33.7,44.7,33.1,44.7z"/>
        </g>
    </symbol>

    <symbol id="help-icon_dizain" viewBox="0 0 44 50.7">
        <g>
            <polygon class="st0" points="22.1,16.9 21.9,16.9 22,17 	"/>
            <path class="st0" d="M43.9,49.2L32.9,30c1.8-1.5,2.5-3,2.6-3.1c0.2-0.5,0-1.1-0.5-1.3c-0.5-0.2-1.1,0-1.3,0.5
                c0,0.1-0.5,1.1-1.7,2.2L25.6,17c0.6,0,1-0.4,1-1V1c0-0.6-0.4-1-1-1H19c-0.6,0-1,0.4-1,1v14.9c0,0.5,0.3,0.8,0.8,1l-6.3,11
                c-0.9-0.9-1.2-1.7-1.2-1.8c-0.2-0.5-0.8-0.8-1.3-0.6c-0.5,0.2-0.8,0.8-0.6,1.3c0,0.1,0.6,1.5,2.1,2.9L0.1,49.2
                c-0.3,0.5-0.1,1.1,0.4,1.4c0.2,0.1,0.3,0.1,0.5,0.1c0.3,0,0.7-0.2,0.9-0.5l11-19.3c1.8,1.2,4.5,2.2,8.3,2.3v2.9c0,0.6,0.4,1,1,1
                s1-0.4,1-1v-2.9c3.6-0.2,6.2-1.1,8.1-2.2l10.9,19.1c0.2,0.3,0.5,0.5,0.9,0.5c0.2,0,0.3,0,0.5-0.1C44,50.3,44.1,49.7,43.9,49.2z
                M23.7,18l5.7,9.9l-6.2-9.1L23.7,18z M24.4,2v12.9c-0.1,0-0.1-0.1-0.2-0.1L23,12.6c-0.2-0.4-0.6-0.5-1-0.5c-0.4-0.1-0.8,0.1-1,0.5
                l-1.2,2.1V2H24.4z M20.2,18l0.6,0.8l-6.9,10.4l0,0L20.2,18z M22.1,28.4c-0.6,0-1,0.4-1,1v1.9c-2.3-0.1-4.1-0.5-5.5-1.1l6.4-9.5
                l6.5,9.6c-1.4,0.6-3.2,1-5.4,1.1v-1.9C23.1,28.8,22.7,28.4,22.1,28.4z"/>
        </g>
    </symbol>

</svg>