<?xml version="1.0" encoding="utf-8"?>
<!-- Generator: Adobe Illustrator 22.0.0, SVG Export Plug-In . SVG Version: 6.00 Build 0)  -->
<svg version="1.1" id="Слой_1" xmlns="http://www.w3.org/2000/svg" xmlns:xlink="http://www.w3.org/1999/xlink" x="0px" y="0px"
	 viewBox="0 0 512 512" style="enable-background:new 0 0 512 512;" xml:space="preserve">
<style type="text/css">
	.st0{fill:#F26316;}
</style>
<path class="st0" d="M0,0c0,0,0,370,0,512c0,0,370,0,512,0c0,0,0-370,0-512C512,0,142,0,0,0z M403.8,175.7L403.8,175.7L217.6,368.9
	c-2.3,2.3-4.7,3.5-8.1,3.5c-3.5,0-7-1.2-8.1-3.5l-90.8-97.7l-2.3-2.3c-2.3-2.3-3.5-5.8-3.5-8.1c0-2.3,1.2-5.8,3.5-8.1l16.3-16.3
	c4.7-4.7,11.6-4.7,16.3,0l1.2,1.2l64,68.7c2.3,2.3,5.8,2.3,8.1,0L370,144.3h1.2c4.7-4.7,11.6-4.7,16.3,0l16.3,16.3
	C408.4,164.1,408.4,171.1,403.8,175.7L403.8,175.7z"/>
</svg>
